<svg width="48" height="40" viewBox="0 0 48 40" fill="none" xmlns="http://www.w3.org/2000/svg">
<path d="M41.5688 3.98701C41.5092 3.98858 41.4497 3.99292 41.3907 4.00003H32C31.788 3.99753 31.5775 4.03017 31.3808 4.09605C31.184 4.16194 31.0049 4.25975 30.8539 4.38381C30.7029 4.50787 30.5831 4.6557 30.5012 4.81871C30.4194 4.98172 30.3772 5.15666 30.3772 5.33336C30.3772 5.51006 30.4194 5.685 30.5012 5.84801C30.5831 6.01102 30.7029 6.15885 30.8539 6.28291C31.0049 6.40697 31.184 6.50478 31.3808 6.57067C31.5775 6.63655 31.788 6.66919 32 6.66669H37.7375L21.2688 20.3906C21.1152 20.5135 20.9926 20.6607 20.9082 20.8235C20.8237 20.9863 20.7791 21.1616 20.7769 21.339C20.7748 21.5164 20.8151 21.6923 20.8955 21.8566C20.976 22.0208 21.095 22.17 21.2455 22.2955C21.396 22.4209 21.5751 22.52 21.7722 22.5871C21.9693 22.6541 22.1804 22.6878 22.3933 22.6859C22.6061 22.6841 22.8164 22.647 23.0118 22.5766C23.2073 22.5062 23.3838 22.404 23.5313 22.2761L40 8.55211V13.3334C39.997 13.51 40.0362 13.6855 40.1153 13.8494C40.1943 14.0134 40.3117 14.1626 40.4606 14.2884C40.6094 14.4143 40.7868 14.5142 40.9824 14.5824C41.1781 14.6506 41.388 14.6857 41.6 14.6857C41.8121 14.6857 42.022 14.6506 42.2176 14.5824C42.4132 14.5142 42.5906 14.4143 42.7395 14.2884C42.8884 14.1626 43.0057 14.0134 43.0848 13.8494C43.1639 13.6855 43.203 13.51 43.2 13.3334V5.50263C43.2319 5.31066 43.2132 5.11522 43.1451 4.9299C43.0771 4.74458 42.9615 4.57384 42.8062 4.42957C42.6509 4.2853 42.4598 4.17097 42.2461 4.09454C42.0324 4.01811 41.8012 3.98141 41.5688 3.98701ZM9.60002 9.33336C7.85112 9.33336 6.40002 10.5426 6.40002 12V32C6.40002 33.4574 7.85112 34.6667 9.60002 34.6667H33.6C35.3489 34.6667 36.8 33.4574 36.8 32V18.6667V15.2292L33.6 17.8959V21.3334V32H9.60002V12H22.4H25.6H26.525L29.725 9.33336H25.6H22.4H9.60002Z" fill="black"/>
</svg>
