<svg width="272" height="200" viewBox="0 0 272 200" fill="none" xmlns="http://www.w3.org/2000/svg">
<rect width="272" height="200" rx="100" fill="#80314D"/>
<circle cx="83.5" cy="32.5" r="7.5" fill="#E96DC6"/>
<path d="M91.0569 54.5502C104.452 72.9778 123.206 118.653 91.0569 153.935C50.8712 198.037 48.0997 132.194 84.8212 122.877C121.543 113.56 151.336 73.806 143.714 40.2637C136.093 6.7215 169.53 9.95867 190.829 30.3253C201.221 40.2636 197.757 39.6426 213 67.5944M119.464 35.2944C116.422 46.0611 113.549 67.5944 126.393 67.5944C142.447 67.5944 146.486 41.506 168.657 54.5502C190.829 67.5944 181.821 93.6827 200.529 88.7135" stroke="#9E6A8D" stroke-width="6"/>
<path d="M91.0569 54.5502C104.452 72.9778 123.206 118.653 91.0569 153.935C50.8712 198.037 48.0997 132.194 84.8212 122.877C121.543 113.56 151.336 73.806 143.714 40.2637C136.093 6.7215 169.53 9.95867 190.829 30.3253C201.221 40.2636 197.757 39.6426 213 67.5944M119.464 35.2944C116.422 46.0611 113.549 67.5944 126.393 67.5944C142.447 67.5944 146.486 41.506 168.657 54.5502C190.829 67.5944 181.821 93.6827 200.529 88.7135" stroke="#9E8CD0" stroke-opacity="0.47" stroke-width="6"/>
</svg>
